<svg width="13" height="14" viewBox="0 0 13 14" fill="none" xmlns="http://www.w3.org/2000/svg">
<path d="M10.5401 7.30506C10.5401 7.03757 10.326 6.82087 10.0621 6.82087H7.13713V3.90023V3.90014C7.13713 3.63174 6.91935 3.41405 6.65114 3.41405C6.38274 3.41405 6.16496 3.63174 6.16496 3.90014V7.30317C6.16496 7.57166 6.38274 7.78934 6.65114 7.78934H10.0624C10.326 7.78934 10.5401 7.57256 10.5401 7.30506ZM11.9998 7.302C11.9998 10.256 9.60546 12.6506 6.65213 12.6506C3.69861 12.6506 1.30449 10.256 1.30449 7.302C1.30449 4.34803 3.69861 1.95337 6.65213 1.95337C9.60546 1.95337 11.9998 4.34803 11.9998 7.302ZM12.9708 7.302C12.9708 3.81223 10.1418 0.983276 6.65213 0.983276C3.16227 0.983276 0.333313 3.81223 0.333313 7.302C0.333313 10.7918 3.16227 13.6207 6.65213 13.6207C10.1418 13.6207 12.9708 10.7918 12.9708 7.302Z" fill="#D0D0D0"/>
</svg>
