<svg width="263" height="283" viewBox="0 0 263 283" fill="none" xmlns="http://www.w3.org/2000/svg">
<path d="M104.114 189.201L117.849 187.197L117.569 154.013L103.77 152.008L104.114 189.201Z" fill="#E08BA8"/>
<path d="M109.636 187.197L109.291 154.013H117.569L117.455 140.495H100.89L101.388 199.6H117.953L117.849 187.197H109.636Z" fill="#BF4365"/>
<path d="M182.462 265.753L126.235 243.773H93.1058L36.8879 265.75C35.682 266.221 34.7538 266.929 34.0752 267.77C35.2033 269.245 36.9785 275.786 39.3003 275.786L186.493 270.264C186.038 268.366 184.739 266.643 182.462 265.753Z" fill="#F3F1F4"/>
<path d="M34.0752 267.77C30.9157 271.686 33.2707 278.547 39.3003 278.547H180.05C184.929 278.547 187.4 274.054 186.492 270.265H39.3003C36.9785 270.265 35.2033 269.245 34.0752 267.77Z" fill="#D1CFE8"/>
<path d="M101.388 195.479L95.8665 241.012L126.235 235.491V195.479H101.388Z" fill="#F3F1F4"/>
<path d="M101.388 195.479H93.1057V243.773H126.235V235.491H101.388V195.479Z" fill="#D1CFE8"/>
<path d="M255.444 223.064C255.444 223.064 171.202 138.823 172.478 140.099L149.108 140.097L255.444 234.777C258.678 231.543 258.678 226.299 255.444 223.064Z" fill="#F3F1F4"/>
<path d="M160.831 140.098L149.109 140.097C159.193 150.182 242.064 233.111 243.73 234.778C246.965 238.012 252.209 238.012 255.444 234.778C255.444 234.778 255.444 234.778 255.444 234.777C229.45 208.764 184.253 163.534 160.831 140.098Z" fill="#D1CFE8"/>
<path d="M74.1356 106.423L55.916 29.6136C51.693 11.8108 33.8372 0.801831 16.0344 5.02476L15.3862 5.17882C15.3862 5.17882 24.2202 82.1281 29.1477 104.596C34.0752 127.064 47.5982 140.495 65.4402 140.495L186.678 134.973V121.161L74.1356 106.423Z" fill="#F6AEC2"/>
<path d="M20.0116 88.0307L29.1477 104.596L26.976 119.949C27.0649 120.356 27.1649 120.76 27.2681 121.16C31.0234 135.738 44.1858 146.016 59.3443 146.016H178.395C182.97 146.016 186.678 142.308 186.678 137.734V134.973H65.4402C55.4704 134.973 46.5607 129.513 41.8877 121.16C40.6144 118.884 39.6531 116.394 39.0739 113.739L15.3862 5.17822L10.51 6.335C6.11591 7.37748 3.3667 11.7473 4.32967 16.1596L20.0116 88.0307Z" fill="#CF6A8A"/>
<path d="M33.5523 113.74C34.1315 116.394 41.8878 121.161 41.8878 121.161H186.677C186.677 102.864 171.845 88.031 153.548 88.031H69.7736H33.4645L33.5523 113.74Z" fill="#FFEDF2"/>
<path d="M39.0739 113.74L33.4645 88.031H20.0116L26.976 119.949C27.0649 120.357 27.1649 120.76 27.2681 121.161H41.8877C40.6144 118.884 39.6531 116.394 39.0739 113.74Z" fill="#CF6A8A"/>
</svg>
