<svg width="79" height="14" viewBox="0 0 79 14" fill="none" xmlns="http://www.w3.org/2000/svg">
<path d="M3.99326 8.59705L4.28816 8.19328L4.28804 8.19319L4.28754 8.19283L4.28555 8.19138L4.27772 8.18565L4.24715 8.16333L4.13106 8.07852L3.71602 7.77538L2.45027 6.85124C1.55898 6.20071 0.63622 5.52766 0.53526 5.45669L0.535275 5.45666C0.514672 5.44222 0.5 5.41633 0.5 5.38729C0.5 5.35727 0.512133 5.32855 0.531067 5.30844C0.548836 5.28958 0.564198 5.2861 0.574261 5.2861H5.21075H5.57444L5.68645 4.94009L7.0983 0.578744L7.10131 0.569426L7.10396 0.559997C7.11505 0.520552 7.14673 0.5 7.17908 0.5C7.21147 0.5 7.24293 0.520826 7.25367 0.559278L7.25649 0.569378L7.25974 0.579352L8.67774 4.9407L8.79004 5.2861H9.15324H13.7897C13.799 5.2861 13.8121 5.28891 13.8282 5.30612C13.8458 5.32506 13.8582 5.35351 13.8582 5.38439C13.8582 5.41757 13.8424 5.44295 13.8228 5.45666L13.8228 5.45669C13.7196 5.52923 12.7977 6.20169 11.9078 6.85125L10.6421 7.77539L10.2271 8.07854L10.111 8.16334L10.0805 8.18567L10.0726 8.19139L10.0706 8.19284L10.0701 8.1932L10.07 8.19329L10.3649 8.59705M3.99326 8.59705L4.46867 8.75192L4.46862 8.75207L4.46843 8.75266L4.46767 8.755L4.46466 8.76424L4.45292 8.80028L4.40835 8.93713L4.24906 9.42609C4.11712 9.83103 3.94091 10.3717 3.76384 10.9145C3.44055 11.9056 3.10151 12.9443 3.03787 13.1301L3.0381 13.1302C3.02858 13.159 3.02768 13.1734 3.02768 13.1767C3.02768 13.2255 3.06573 13.26 3.10786 13.26C3.12125 13.26 3.13626 13.2565 3.15356 13.2455L6.88479 10.5289L7.17914 10.3146L7.47346 10.529L7.17908 10.9331L7.4735 10.529L7.47362 10.5291L7.47412 10.5295L7.47611 10.5309L7.48394 10.5366L7.51453 10.5589L7.63068 10.6435L8.0459 10.9459L9.31156 11.8676L10.5929 12.8006L11.0276 13.1169L11.1563 13.2105L11.1936 13.2375L11.2044 13.2454C11.2212 13.2563 11.2365 13.26 11.25 13.26C11.2908 13.26 11.3305 13.2239 11.3305 13.1767C11.3305 13.1732 11.3296 13.1593 11.3207 13.1329L11.3209 13.1328C11.2622 12.9614 10.9207 11.9153 10.5943 10.9145L10.1091 9.42609L9.94985 8.93713L9.90528 8.80028L9.89354 8.76424L9.89054 8.755L9.88977 8.75266L9.88958 8.75207L9.88953 8.75192L10.3649 8.59705M3.99326 8.59705L4.2882 8.19331L4.58093 8.40716L4.46868 8.75187L3.99326 8.59705ZM10.3649 8.59705L9.88952 8.75187L9.77727 8.40718L10.07 8.19333L10.3649 8.59705Z" fill="#E08BA8" stroke="#FCFCFC"/>
<path d="M20.0466 8.59705L20.3415 8.19328L20.3414 8.19319L20.3409 8.19283L20.3389 8.19138L20.3311 8.18565L20.3005 8.16333L20.1844 8.07852L19.7694 7.77538L18.5036 6.85124C17.6123 6.20071 16.6896 5.52766 16.5886 5.45669L16.5886 5.45666C16.568 5.44222 16.5533 5.41633 16.5533 5.38729C16.5533 5.35727 16.5655 5.32855 16.5844 5.30844C16.6022 5.28958 16.6175 5.2861 16.6276 5.2861H21.2641H21.6278L21.7398 4.94009L23.1516 0.578744L23.1547 0.569426L23.1573 0.559997C23.1684 0.520552 23.2001 0.5 23.2324 0.5C23.2648 0.5 23.2963 0.520826 23.307 0.559278L23.3098 0.569378L23.3131 0.579352L24.7311 4.9407L24.8434 5.2861H25.2066H29.843C29.8524 5.2861 29.8655 5.28891 29.8815 5.30612C29.8992 5.32506 29.9115 5.35351 29.9115 5.38439C29.9115 5.41757 29.8957 5.44295 29.8762 5.45666L29.8762 5.45669C29.773 5.52923 28.851 6.20169 27.9611 6.85125L26.6955 7.77539L26.2805 8.07854L26.1644 8.16334L26.1338 8.18567L26.126 8.19139L26.124 8.19284L26.1235 8.1932L26.1234 8.19329L26.4183 8.59705M20.0466 8.59705L20.522 8.75192L20.522 8.75207L20.5218 8.75266L20.521 8.755L20.518 8.76424L20.5063 8.80028L20.4617 8.93713L20.3024 9.42609C20.1705 9.83103 19.9943 10.3717 19.8172 10.9145C19.4939 11.9056 19.1549 12.9443 19.0912 13.1301L19.0914 13.1302C19.0819 13.159 19.081 13.1734 19.081 13.1767C19.081 13.2255 19.1191 13.26 19.1612 13.26C19.1746 13.26 19.1896 13.2565 19.2069 13.2455L22.9381 10.5289L23.2325 10.3146L23.5268 10.529L23.2324 10.9331L23.5268 10.529L23.527 10.5291L23.5275 10.5295L23.5295 10.5309L23.5373 10.5366L23.5679 10.5589L23.684 10.6435L24.0992 10.9459L25.3649 11.8676L26.6462 12.8006L27.081 13.1169L27.2096 13.2105L27.2469 13.2375L27.2577 13.2454C27.2745 13.2563 27.2898 13.26 27.3034 13.26C27.3442 13.26 27.3838 13.2239 27.3838 13.1767C27.3838 13.1732 27.3829 13.1593 27.374 13.1329L27.3742 13.1328C27.3155 12.9614 26.9741 11.9153 26.6477 10.9145L26.1625 9.42609L26.0032 8.93713L25.9586 8.80028L25.9469 8.76424L25.9439 8.755L25.9431 8.75266L25.9429 8.75207L25.9429 8.75192L26.4183 8.59705M20.0466 8.59705L20.3415 8.19331L20.6343 8.40716L20.522 8.75187L20.0466 8.59705ZM26.4183 8.59705L25.9429 8.75187L25.8306 8.40718L26.1233 8.19333L26.4183 8.59705Z" fill="#E08BA8" stroke="#FCFCFC"/>
<path d="M36.0999 8.59705L36.3949 8.19328L36.3947 8.19319L36.3942 8.19283L36.3922 8.19138L36.3844 8.18565L36.3538 8.16333L36.2378 8.07852L35.8227 7.77538L34.557 6.85124C33.6657 6.20071 32.7429 5.52766 32.6419 5.45669L32.642 5.45666C32.6214 5.44222 32.6067 5.41633 32.6067 5.38729C32.6067 5.35727 32.6188 5.32855 32.6378 5.30844C32.6555 5.28958 32.6709 5.2861 32.681 5.2861H37.3174H37.6811L37.7931 4.94009L39.205 0.578744L39.208 0.569426L39.2107 0.559997C39.2217 0.520552 39.2534 0.5 39.2858 0.5C39.3182 0.5 39.3496 0.520826 39.3604 0.559278L39.3632 0.569378L39.3664 0.579352L40.7844 4.9407L40.8967 5.2861H41.2599H45.8964C45.9057 5.2861 45.9188 5.28891 45.9349 5.30612C45.9525 5.32506 45.9649 5.35351 45.9649 5.38439C45.9649 5.41757 45.9491 5.44295 45.9295 5.45666L45.9295 5.45669C45.8263 5.52923 44.9044 6.20169 44.0145 6.85125L42.7488 7.77539L42.3338 8.07854L42.2177 8.16334L42.1872 8.18567L42.1793 8.19139L42.1773 8.19284L42.1768 8.1932L42.1767 8.19329L42.4716 8.59705M36.0999 8.59705L36.5754 8.75192L36.5753 8.75207L36.5751 8.75266L36.5744 8.755L36.5713 8.76424L36.5596 8.80028L36.515 8.93713L36.3557 9.42609C36.2238 9.83103 36.0476 10.3717 35.8705 10.9145C35.5472 11.9056 35.2082 12.9443 35.1446 13.1301L35.1448 13.1302C35.1353 13.159 35.1344 13.1734 35.1344 13.1767C35.1344 13.2255 35.1724 13.26 35.2146 13.26C35.2279 13.26 35.2429 13.2565 35.2603 13.2455L38.9915 10.5289L39.2858 10.3146L39.5801 10.529L39.2858 10.9331L39.5802 10.529L39.5803 10.5291L39.5808 10.5295L39.5828 10.5309L39.5906 10.5366L39.6212 10.5589L39.7374 10.6435L40.1526 10.9459L41.4182 11.8676L42.6996 12.8006L43.1343 13.1169L43.263 13.2105L43.3003 13.2375L43.311 13.2454C43.3279 13.2563 43.3431 13.26 43.3567 13.26C43.3975 13.26 43.4372 13.2239 43.4372 13.1767C43.4372 13.1732 43.4362 13.1593 43.4274 13.1329L43.4276 13.1328C43.3689 12.9614 43.0274 11.9153 42.701 10.9145L42.2158 9.42609L42.0565 8.93713L42.012 8.80028L42.0002 8.76424L41.9972 8.755L41.9965 8.75266L41.9963 8.75207L41.9962 8.75192L42.4716 8.59705M36.0999 8.59705L36.3949 8.19331L36.6876 8.40716L36.5754 8.75187L36.0999 8.59705ZM42.4716 8.59705L41.9962 8.75187L41.884 8.40718L42.1767 8.19333L42.4716 8.59705Z" fill="#E08BA8" stroke="#FCFCFC"/>
<path d="M52.1533 8.59705L52.4482 8.19328L52.4481 8.19319L52.4476 8.19283L52.4456 8.19138L52.4378 8.18565L52.4072 8.16333L52.2911 8.07852L51.8761 7.77538L50.6103 6.85124C49.719 6.20071 48.7963 5.52766 48.6953 5.45669L48.6953 5.45666C48.6747 5.44222 48.66 5.41633 48.66 5.38729C48.66 5.35727 48.6722 5.32855 48.6911 5.30844C48.7089 5.28958 48.7242 5.2861 48.7343 5.2861H53.3708H53.7345L53.8465 4.94009L55.2583 0.578744L55.2613 0.569426L55.264 0.559997C55.2751 0.520552 55.3068 0.5 55.3391 0.5C55.3715 0.5 55.403 0.520826 55.4137 0.559278L55.4165 0.569378L55.4198 0.579352L56.8378 4.9407L56.9501 5.2861H57.3133H61.9497C61.959 5.2861 61.9722 5.28891 61.9882 5.30612C62.0058 5.32506 62.0182 5.35351 62.0182 5.38439C62.0182 5.41757 62.0024 5.44295 61.9829 5.45666L61.9829 5.45669C61.8797 5.52923 60.9577 6.20169 60.0678 6.85125L58.8022 7.77539L58.3871 8.07854L58.2711 8.16334L58.2405 8.18567L58.2327 8.19139L58.2307 8.19284L58.2302 8.1932L58.2301 8.19329L58.525 8.59705M52.1533 8.59705L52.6287 8.75192L52.6287 8.75207L52.6285 8.75266L52.6277 8.755L52.6247 8.76424L52.613 8.80028L52.5684 8.93713L52.4091 9.42609C52.2772 9.83103 52.1009 10.3717 51.9239 10.9145C51.6006 11.9056 51.2615 12.9443 51.1979 13.1301L51.1981 13.1302C51.1886 13.159 51.1877 13.1734 51.1877 13.1767C51.1877 13.2255 51.2258 13.26 51.2679 13.26C51.2813 13.26 51.2963 13.2565 51.3136 13.2455L55.0448 10.5289L55.3392 10.3146L55.6335 10.529L55.3391 10.9331L55.6335 10.529L55.6337 10.5291L55.6342 10.5295L55.6361 10.5309L55.644 10.5366L55.6746 10.5589L55.7907 10.6435L56.2059 10.9459L57.4716 11.8676L58.7529 12.8006L59.1876 13.1169L59.3163 13.2105L59.3536 13.2375L59.3644 13.2454C59.3812 13.2563 59.3965 13.26 59.4101 13.26C59.4509 13.26 59.4905 13.2239 59.4905 13.1767C59.4905 13.1732 59.4896 13.1593 59.4807 13.1329L59.4809 13.1328C59.4222 12.9614 59.0808 11.9153 58.7544 10.9145L58.2692 9.42609L58.1099 8.93713L58.0653 8.80028L58.0536 8.76424L58.0506 8.755L58.0498 8.75266L58.0496 8.75207L58.0496 8.75192L58.525 8.59705M52.1533 8.59705L52.4482 8.19331L52.741 8.40716L52.6287 8.75187L52.1533 8.59705ZM58.525 8.59705L58.0496 8.75187L57.9373 8.40718L58.23 8.19333L58.525 8.59705Z" fill="#E08BA8" stroke="#FCFCFC"/>
<path d="M68.2066 8.59705L68.5015 8.19328L68.5014 8.19319L68.5009 8.19283L68.4989 8.19138L68.4911 8.18565L68.4605 8.16333L68.3444 8.07852L67.9294 7.77538L66.6636 6.85124C65.7724 6.20071 64.8496 5.52766 64.7486 5.45669L64.7487 5.45666C64.7281 5.44222 64.7134 5.41633 64.7134 5.38729C64.7134 5.35727 64.7255 5.32855 64.7444 5.30844C64.7622 5.28958 64.7776 5.2861 64.7876 5.2861H69.4241H69.7878L69.8998 4.94009L71.3117 0.578744L71.3147 0.569426L71.3173 0.559997C71.3284 0.520552 71.3601 0.5 71.3925 0.5C71.4248 0.5 71.4563 0.520826 71.4671 0.559278L71.4699 0.569378L71.4731 0.579352L72.8911 4.9407L73.0034 5.2861H73.3666H78.003C78.0124 5.2861 78.0255 5.28891 78.0415 5.30612C78.0592 5.32506 78.0715 5.35351 78.0715 5.38439C78.0715 5.41757 78.0558 5.44295 78.0362 5.45666L78.0362 5.45669C77.933 5.52923 77.0111 6.20169 76.1212 6.85125L74.8555 7.77539L74.4405 8.07854L74.3244 8.16334L74.2938 8.18567L74.286 8.19139L74.284 8.19284L74.2835 8.1932L74.2834 8.19329L74.5783 8.59705M68.2066 8.59705L68.682 8.75192L68.682 8.75207L68.6818 8.75266L68.681 8.755L68.678 8.76424L68.6663 8.80028L68.6217 8.93713L68.4624 9.42609C68.3305 9.83103 68.1543 10.3717 67.9772 10.9145C67.6539 11.9056 67.3149 12.9443 67.2512 13.1301L67.2515 13.1302C67.242 13.159 67.2411 13.1734 67.2411 13.1767C67.2411 13.2255 67.2791 13.26 67.3212 13.26C67.3346 13.26 67.3496 13.2565 67.3669 13.2455L71.0982 10.5289L71.3925 10.3146L71.6868 10.529L71.3925 10.9331L71.6869 10.529L71.687 10.5291L71.6875 10.5295L71.6895 10.5309L71.6973 10.5366L71.7279 10.5589L71.8441 10.6435L72.2593 10.9459L73.5249 11.8676L74.8063 12.8006L75.241 13.1169L75.3697 13.2105L75.4069 13.2375L75.4177 13.2454C75.4346 13.2563 75.4498 13.26 75.4634 13.26C75.5042 13.26 75.5439 13.2239 75.5439 13.1767C75.5439 13.1732 75.5429 13.1593 75.534 13.1329L75.5343 13.1328C75.4756 12.9614 75.1341 11.9153 74.8077 10.9145L74.3225 9.42609L74.1632 8.93713L74.1187 8.80028L74.1069 8.76424L74.1039 8.755L74.1032 8.75266L74.103 8.75207L74.1029 8.75192L74.5783 8.59705M68.2066 8.59705L68.5016 8.19331L68.7943 8.40716L68.6821 8.75187L68.2066 8.59705ZM74.5783 8.59705L74.1029 8.75187L73.9906 8.40718L74.2834 8.19333L74.5783 8.59705Z" fill="#E08BA8" stroke="#FCFCFC"/>
</svg>
