<svg width="275" height="48" viewBox="0 0 275 48" fill="none" xmlns="http://www.w3.org/2000/svg">
<path fill-rule="evenodd" clip-rule="evenodd" d="M25.0433 0C24.1141 0 23.3426 0.62571 23.1021 1.4817L18.177 16.6957H2.00323C0.886422 16.6957 0 17.6669 0 18.7929C0 19.4819 0.344209 20.0972 0.865978 20.463C1.18917 20.6821 13.93 29.9897 13.93 29.9897C13.93 29.9897 9.03673 45.0163 8.94186 45.2559C8.8695 45.4749 8.81747 45.7154 8.81747 45.9651C8.81747 47.0921 9.72445 48 10.8414 48C11.2693 48 11.6658 47.8644 11.9999 47.6353L25.0433 38.1389C25.0433 38.1389 37.7944 47.4263 38.0869 47.6353C38.4198 47.8644 38.8174 48 39.2443 48C40.3613 48 41.2691 47.0819 41.2691 45.9651C41.2691 45.7154 41.2175 45.4749 41.1437 45.2559C41.0501 45.0163 36.1568 29.9897 36.1568 29.9897C36.1568 29.9897 48.8965 20.6821 49.2204 20.463C49.7422 20.0972 50.0866 19.4819 50.0866 18.7828C50.0866 17.6668 49.2204 16.6957 48.1035 16.6957H31.9299L26.9834 1.4817C26.7443 0.62571 25.9714 0 25.0433 0Z" fill="#F4E879"/>
<path fill-rule="evenodd" clip-rule="evenodd" d="M81.0433 0C80.114 0 79.3425 0.62571 79.102 1.4817L74.177 16.6957H58.0032C56.8864 16.6957 55.9999 17.6669 55.9999 18.7929C55.9999 19.4819 56.3441 20.0972 56.8659 20.463C57.1891 20.6821 69.9299 29.9897 69.9299 29.9897C69.9299 29.9897 65.0367 45.0163 64.9418 45.2559C64.8694 45.4749 64.8174 45.7154 64.8174 45.9651C64.8174 47.0921 65.7244 48 66.8413 48C67.2693 48 67.6657 47.8644 67.9998 47.6353L81.0433 38.1389C81.0433 38.1389 93.7944 47.4263 94.0868 47.6353C94.4197 47.8644 94.8174 48 95.2443 48C96.3612 48 97.2691 47.0819 97.2691 45.9651C97.2691 45.7154 97.2174 45.4749 97.1437 45.2559C97.0501 45.0163 92.1567 29.9897 92.1567 29.9897C92.1567 29.9897 104.896 20.6821 105.22 20.463C105.742 20.0972 106.087 19.4819 106.087 18.7828C106.087 17.6668 105.22 16.6957 104.103 16.6957H87.9298L82.9833 1.4817C82.7442 0.62571 81.9714 0 81.0433 0Z" fill="#F4E879"/>
<path fill-rule="evenodd" clip-rule="evenodd" d="M137.043 0C136.114 0 135.343 0.62571 135.102 1.4817L130.177 16.6957H114.003C112.886 16.6957 112 17.6669 112 18.7929C112 19.4819 112.344 20.0972 112.866 20.463C113.189 20.6821 125.93 29.9897 125.93 29.9897C125.93 29.9897 121.037 45.0163 120.942 45.2559C120.869 45.4749 120.817 45.7154 120.817 45.9651C120.817 47.0921 121.724 48 122.841 48C123.269 48 123.666 47.8644 124 47.6353L137.043 38.1389C137.043 38.1389 149.794 47.4263 150.087 47.6353C150.42 47.8644 150.817 48 151.244 48C152.361 48 153.269 47.0819 153.269 45.9651C153.269 45.7154 153.217 45.4749 153.144 45.2559C153.05 45.0163 148.157 29.9897 148.157 29.9897C148.157 29.9897 160.897 20.6821 161.22 20.463C161.742 20.0972 162.087 19.4819 162.087 18.7828C162.087 17.6668 161.22 16.6957 160.103 16.6957H143.93L138.983 1.4817C138.744 0.62571 137.971 0 137.043 0Z" fill="#F4E879"/>
<path fill-rule="evenodd" clip-rule="evenodd" d="M193.043 0C192.114 0 191.343 0.62571 191.102 1.4817L186.177 16.6957H170.003C168.886 16.6957 168 17.6669 168 18.7929C168 19.4819 168.344 20.0972 168.866 20.463C169.189 20.6821 181.93 29.9897 181.93 29.9897C181.93 29.9897 177.037 45.0163 176.942 45.2559C176.87 45.4749 176.817 45.7154 176.817 45.9651C176.817 47.0921 177.724 48 178.841 48C179.269 48 179.666 47.8644 180 47.6353L193.043 38.1389C193.043 38.1389 205.794 47.4263 206.087 47.6353C206.42 47.8644 206.817 48 207.244 48C208.361 48 209.269 47.0819 209.269 45.9651C209.269 45.7154 209.217 45.4749 209.144 45.2559C209.05 45.0163 204.157 29.9897 204.157 29.9897C204.157 29.9897 216.897 20.6821 217.22 20.463C217.742 20.0972 218.087 19.4819 218.087 18.7828C218.087 17.6668 217.22 16.6957 216.103 16.6957H199.93L194.983 1.4817C194.744 0.62571 193.971 0 193.043 0Z" fill="#F4E879"/>
<path fill-rule="evenodd" clip-rule="evenodd" d="M249.043 0C248.114 0 247.343 0.62571 247.102 1.4817L242.177 16.6957H226.003C224.886 16.6957 224 17.6669 224 18.7929C224 19.4819 224.344 20.0972 224.866 20.463C225.189 20.6821 237.93 29.9897 237.93 29.9897C237.93 29.9897 233.037 45.0163 232.942 45.2559C232.869 45.4749 232.817 45.7154 232.817 45.9651C232.817 47.0921 233.724 48 234.841 48C235.269 48 235.666 47.8644 236 47.6353L249.043 38.1389C249.043 38.1389 261.794 47.4263 262.087 47.6353C262.42 47.8644 262.817 48 263.244 48C264.361 48 265.269 47.0819 265.269 45.9651C265.269 45.7154 265.217 45.4749 265.144 45.2559C265.05 45.0163 260.157 29.9897 260.157 29.9897C260.157 29.9897 272.896 20.6821 273.22 20.463C273.742 20.0972 274.087 19.4819 274.087 18.7828C274.087 17.6668 273.22 16.6957 272.103 16.6957H255.93L250.983 1.4817C250.744 0.62571 249.971 0 249.043 0Z" fill="#F4E879"/>
</svg>
