<svg width="51" height="48" viewBox="0 0 51 48" fill="none" xmlns="http://www.w3.org/2000/svg">
<path fill-rule="evenodd" clip-rule="evenodd" d="M25.0433 0C24.1141 0 23.3426 0.62571 23.1021 1.4817L18.177 16.6957H2.00323C0.886422 16.6957 0 17.6669 0 18.7929C0 19.4819 0.344209 20.0972 0.865978 20.463C1.18917 20.6821 13.93 29.9897 13.93 29.9897C13.93 29.9897 9.03673 45.0163 8.94186 45.2559C8.8695 45.4749 8.81747 45.7154 8.81747 45.9651C8.81747 47.0921 9.72445 48 10.8414 48C11.2693 48 11.6658 47.8644 11.9999 47.6353L25.0433 38.1389C25.0433 38.1389 37.7944 47.4263 38.0869 47.6353C38.4198 47.8644 38.8174 48 39.2443 48C40.3613 48 41.2691 47.0819 41.2691 45.9651C41.2691 45.7154 41.2175 45.4749 41.1437 45.2559C41.0501 45.0163 36.1568 29.9897 36.1568 29.9897C36.1568 29.9897 48.8965 20.6821 49.2204 20.463C49.7422 20.0972 50.0866 19.4819 50.0866 18.7828C50.0866 17.6668 49.2204 16.6957 48.1035 16.6957H31.9299L26.9834 1.4817C26.7443 0.62571 25.9714 0 25.0433 0Z" fill="#F4E879"/>
</svg>
