<svg width="55" height="52" viewBox="0 0 55 52" fill="none" xmlns="http://www.w3.org/2000/svg">
<path d="M15.0211 32.3389C15.906 31.1277 15.9059 31.1277 15.9058 31.1276L15.9054 31.1272L15.9035 31.1259L15.896 31.1204L15.8665 31.0989L15.7516 31.0149L15.3149 30.6959L13.7537 29.5556C12.4601 28.611 10.7318 27.3489 8.99249 26.0794C5.61998 23.6179 2.14386 21.0826 1.79486 20.8378L1.7949 20.8378C1.61917 20.7146 1.5 20.5025 1.5 20.265C1.5 19.7931 1.86781 19.5035 2.16016 19.5035H19.6009H20.692L21.028 18.4655L26.3389 2.05974L26.3479 2.03178L26.3558 2.00349C26.4416 1.69827 26.7051 1.5 27.005 1.5C27.3048 1.5 27.568 1.69909 27.6524 2.00134L27.6609 2.03164L27.6706 2.06156L33.0046 18.4673L33.3415 19.5035H34.4311H51.8716C52.1494 19.5035 52.5101 19.7774 52.5101 20.2541C52.5101 20.5062 52.3875 20.7167 52.2149 20.8378L52.215 20.8378C51.8584 21.0878 48.3852 23.6211 45.0172 26.0794C43.278 27.3489 41.5498 28.611 40.2563 29.5557L38.6952 30.6959L38.2586 31.0149L38.1436 31.0989L38.1141 31.1205L38.1067 31.1259L38.1048 31.1273L38.1043 31.1276C38.1042 31.1277 38.1042 31.1277 38.9891 32.3389M15.0211 32.3389C16.4474 32.8034 16.4474 32.8034 16.4474 32.8036L16.4472 32.8041L16.4465 32.8063L16.4436 32.8151L16.4323 32.8499L16.3881 32.9855L16.2205 33.5002L15.6213 35.3395C15.125 36.8627 14.4622 38.8964 13.7961 40.9382C12.5649 44.7128 11.2833 48.6384 11.066 49.2712L11.0666 49.2714C11.0222 49.4057 11.0082 49.5015 11.0082 49.5657C11.0082 49.9583 11.3204 50.26 11.6906 50.26C11.8224 50.26 11.9529 50.2212 12.0784 50.1385L26.1222 39.9138L27.0052 39.2708L27.8882 39.9139L27.005 41.1264C27.8882 39.9139 27.8882 39.914 27.8883 39.9141L27.8888 39.9144L27.8907 39.9158L27.8981 39.9212L27.9276 39.9427L28.0426 40.0265L28.4796 40.3447L30.0415 41.4823L34.8024 44.9495C36.5409 46.2155 38.2891 47.4884 39.6224 48.4589C40.289 48.9442 40.8518 49.3537 41.2577 49.649L41.7419 50.001L41.8825 50.1031L41.9244 50.1334L41.9303 50.1376C42.0539 50.2201 42.1858 50.26 42.3185 50.26C42.6847 50.26 43.0019 49.9513 43.0019 49.5657C43.0019 49.5007 42.9878 49.4065 42.9451 49.2795L42.9456 49.2793C42.7453 48.696 41.4556 44.745 40.2139 40.9382C39.548 38.8964 38.8852 36.8627 38.3889 35.3395L37.7897 33.5002L37.6221 32.9855L37.5779 32.8499L37.5666 32.8151L37.5637 32.8063L37.563 32.8041L37.5628 32.8036C37.5628 32.8034 37.5628 32.8034 38.9891 32.3389M15.0211 32.3389L15.906 31.1277L16.7842 31.7693L16.4474 32.8034L15.0211 32.3389ZM38.9891 32.3389L37.5628 32.8034L37.226 31.7693L38.1042 31.1277L38.9891 32.3389Z" fill="#E08BA8" stroke="#FCFCFC" stroke-width="3"/>
</svg>
